<svg id="visual" viewBox="0 0 900 600" width="900" height="600" xmlns="http://www.w3.org/2000/svg" xmlns:xlink="http://www.w3.org/1999/xlink" version="1.1"><rect x="0" y="0" width="900" height="600" fill="#002233"></rect><path d="M0 390L21.5 389.3C43 388.7 86 387.3 128.8 368.5C171.7 349.7 214.3 313.3 257.2 311.5C300 309.7 343 342.3 385.8 334C428.7 325.7 471.3 276.3 514.2 275C557 273.7 600 320.3 642.8 352.5C685.7 384.7 728.3 402.3 771.2 401.8C814 401.3 857 382.7 878.5 373.3L900 364L900 601L878.5 601C857 601 814 601 771.2 601C728.3 601 685.7 601 642.8 601C600 601 557 601 514.2 601C471.3 601 428.7 601 385.8 601C343 601 300 601 257.2 601C214.3 601 171.7 601 128.8 601C86 601 43 601 21.5 601L0 601Z" fill="#0066FF" stroke-linecap="round" stroke-linejoin="miter"></path></svg>